<?xml version="1.0" encoding="UTF-8"?>
<svg id="Logos" xmlns="http://www.w3.org/2000/svg" viewBox="0 0 297.96 41.31">
  <defs>
    <style>
      .cls-1 {
        fill: #193e6b;
      }

      .cls-2 {
        fill: #b3a125;
      }
    </style>
  </defs>
  <path class="cls-1" d="M34.34.3h9.03v33.46h15.81v7.55h-24.84V.3Z"/>
  <path class="cls-1" d="M80.24,40.67l-.53-2.89h-.18c-1.89,2.3-4.84,3.54-8.26,3.54-5.84,0-9.32-4.25-9.32-8.85,0-7.49,6.73-11.09,16.94-11.03v-.41c0-1.53-.83-3.72-5.25-3.72-2.95,0-6.08,1-7.97,2.18l-1.65-5.78c2.01-1.12,5.96-2.54,11.21-2.54,9.62,0,12.69,5.66,12.69,12.45v10.03c0,2.77.12,5.43.41,7.02h-8.08ZM79.18,27.03c-4.72-.06-8.38,1.06-8.38,4.54,0,2.3,1.53,3.42,3.54,3.42,2.24,0,4.07-1.48,4.66-3.3.12-.47.18-1,.18-1.53v-3.13Z"/>
  <path class="cls-1" d="M109.33,40.67l-.53-2.89h-.18c-1.89,2.3-4.84,3.54-8.26,3.54-5.84,0-9.32-4.25-9.32-8.85,0-7.49,6.73-11.09,16.94-11.03v-.41c0-1.53-.83-3.72-5.25-3.72-2.95,0-6.08,1-7.97,2.18l-1.65-5.78c2.01-1.12,5.96-2.54,11.21-2.54,9.62,0,12.69,5.66,12.69,12.45v10.03c0,2.77.12,5.43.41,7.02h-8.08ZM108.27,27.03c-4.72-.06-8.38,1.06-8.38,4.54,0,2.3,1.53,3.42,3.54,3.42,2.24,0,4.07-1.48,4.66-3.3.12-.47.18-1,.18-1.53v-3.13Z"/>
  <path class="cls-1" d="M230.64,40.67l-.53-2.89h-.18c-1.89,2.3-4.84,3.54-8.26,3.54-5.84,0-9.32-4.25-9.32-8.85,0-7.49,6.73-11.09,16.94-11.03v-.41c0-1.53-.83-3.72-5.25-3.72-2.95,0-6.08,1-7.97,2.18l-1.65-5.78c2.01-1.12,5.96-2.54,11.21-2.54,9.62,0,12.69,5.66,12.69,12.45v10.03c0,2.77.12,5.43.41,7.02h-8.08ZM229.58,27.03c-4.72-.06-8.38,1.06-8.38,4.54,0,2.3,1.53,3.42,3.54,3.42,2.24,0,4.07-1.48,4.66-3.3.12-.47.18-1,.18-1.53v-3.13Z"/>
  <path class="cls-1" d="M259.73,40.67l-.53-2.89h-.18c-1.89,2.3-4.84,3.54-8.26,3.54-5.84,0-9.32-4.25-9.32-8.85,0-7.49,6.73-11.09,16.94-11.03v-.41c0-1.53-.83-3.72-5.25-3.72-2.95,0-6.08,1-7.97,2.18l-1.65-5.78c2.01-1.12,5.96-2.54,11.21-2.54,9.62,0,12.69,5.66,12.69,12.45v10.03c0,2.77.12,5.43.41,7.02h-8.08ZM258.67,27.03c-4.72-.06-8.38,1.06-8.38,4.54,0,2.3,1.53,3.42,3.54,3.42,2.24,0,4.07-1.48,4.66-3.3.12-.47.18-1,.18-1.53v-3.13Z"/>
  <path class="cls-1" d="M122.08,31.46c2.42,1.24,6.14,2.48,9.97,2.48,4.13,0,6.31-1.71,6.31-4.31s-1.89-3.89-6.67-5.61c-6.61-2.3-10.92-5.96-10.92-11.74,0-6.79,5.66-11.98,15.05-11.98,4.48,0,7.79.94,10.15,2.01l-2.01,7.26c-1.59-.77-4.43-1.89-8.32-1.89s-5.78,1.77-5.78,3.84c0,2.54,2.24,3.66,7.38,5.61,7.02,2.6,10.33,6.25,10.33,11.86,0,6.67-5.13,12.33-16.05,12.33-4.54,0-9.03-1.18-11.27-2.42l1.83-7.43Z"/>
  <path class="cls-1" d="M272.47,31.46c2.42,1.24,6.14,2.48,9.97,2.48,4.13,0,6.31-1.71,6.31-4.31s-1.89-3.89-6.67-5.61c-6.61-2.3-10.92-5.96-10.92-11.74,0-6.79,5.66-11.98,15.05-11.98,4.48,0,7.79.94,10.15,2.01l-2.01,7.26c-1.59-.77-4.43-1.89-8.32-1.89s-5.78,1.77-5.78,3.84c0,2.54,2.24,3.66,7.38,5.61,7.02,2.6,10.33,6.25,10.33,11.86,0,6.67-5.13,12.33-16.05,12.33-4.54,0-9.03-1.18-11.27-2.42l1.83-7.43Z"/>
  <path class="cls-1" d="M186.42,31.46c2.23,1.24,5.65,2.48,9.18,2.48,3.8,0,5.81-1.71,5.81-4.31s-1.74-3.89-6.14-5.61c-6.08-2.3-10.04-5.96-10.04-11.74,0-6.79,5.21-11.98,13.84-11.98,4.13,0,7.17.94,9.34,2.01l-1.85,7.26c-1.47-.77-4.07-1.89-7.65-1.89s-5.32,1.77-5.32,3.84c0,2.54,2.06,3.66,6.79,5.61,6.46,2.6,9.5,6.25,9.5,11.86,0,6.67-4.72,12.33-14.77,12.33-4.18,0-8.31-1.18-10.37-2.42l1.68-7.43Z"/>
  <path class="cls-1" d="M31.04,39.6c-1.65.83-5.37,1.71-10.21,1.71C7.08,41.31,0,32.76,0,21.43,0,7.86,9.68.3,21.71.3c4.66,0,8.2.94,9.8,1.77l-1.83,7.14c-1.83-.77-4.37-1.48-7.55-1.48-7.14,0-12.69,4.31-12.69,13.16,0,7.97,4.72,12.98,12.75,12.98,2.71,0,5.72-.59,7.49-1.3l1.36,7.02Z"/>
  <path class="cls-2" d="M167.05,25.08h-1.5c-2.51,0-3.76,1.23-3.76,3.69v3.69h18.04v8.85h-27.07v-12.54c0-8.36,4.26-12.54,12.78-12.54h1.5c2.51,0,3.76-1.23,3.76-3.69s-1.25-3.69-3.76-3.69h-11.28l-3.01-8.85h14.29c8.52,0,12.78,4.18,12.78,12.54s-4.26,12.54-12.78,12.54Z"/>
</svg>