<?xml version="1.0" encoding="UTF-8"?>
<svg id="Logos" xmlns="http://www.w3.org/2000/svg" viewBox="0 0 147.62 58.62">
  <defs>
    <style>
      .cls-1 {
        fill: #fff;
      }

      .cls-2 {
        fill: #193e6b;
      }

      .cls-3 {
        fill: #b3a125;
      }
    </style>
  </defs>
  <rect class="cls-2" x=".05" y=".61" width="147.57" height="58.01"/>
  <path class="cls-1" d="M43.79,8.96h6.85v14.47h13.18v3.79h-20.03V8.96Z"/>
  <path class="cls-1" d="M80.36,26.94l-.4-1.29h-.13c-1.41,1.02-3.62,1.58-6.17,1.58-4.36,0-6.97-1.89-6.97-3.94,0-3.34,5.03-4.94,12.65-4.91v-.18c0-.68-.62-1.66-3.92-1.66-2.2,0-4.54.45-5.95.97l-1.23-2.58c1.5-.5,4.45-1.13,8.38-1.13,7.19,0,9.48,2.52,9.48,5.55v4.47c0,1.24.09,2.42.31,3.13h-6.04ZM79.56,20.87c-3.53-.03-6.26.47-6.26,2.02,0,1.02,1.15,1.52,2.65,1.52,1.68,0,3.04-.66,3.48-1.47.09-.21.13-.45.13-.68v-1.39Z"/>
  <path class="cls-1" d="M102.66,26.94l-.4-1.29h-.13c-1.41,1.02-3.62,1.58-6.17,1.58-4.36,0-6.97-1.89-6.97-3.94,0-3.34,5.03-4.94,12.65-4.91v-.18c0-.68-.62-1.66-3.92-1.66-2.2,0-4.54.45-5.95.97l-1.23-2.58c1.5-.5,4.45-1.13,8.38-1.13,7.19,0,9.48,2.52,9.48,5.55v4.47c0,1.24.09,2.42.31,3.13h-6.04ZM101.87,20.87c-3.53-.03-6.26.47-6.26,2.02,0,1.02,1.15,1.52,2.65,1.52,1.68,0,3.04-.66,3.48-1.47.09-.21.13-.45.13-.68v-1.39Z"/>
  <path class="cls-1" d="M80.36,50.58l-.4-1.38h-.13c-1.41,1.09-3.62,1.68-6.17,1.68-4.36,0-6.97-2.02-6.97-4.21,0-3.56,5.03-5.28,12.65-5.25v-.2c0-.73-.62-1.77-3.92-1.77-2.2,0-4.54.48-5.95,1.04l-1.23-2.75c1.5-.53,4.45-1.21,8.38-1.21,7.19,0,9.48,2.69,9.48,5.92v4.77c0,1.32.09,2.58.31,3.34h-6.04ZM79.56,44.1c-3.53-.03-6.26.51-6.26,2.16,0,1.09,1.15,1.63,2.65,1.63,1.68,0,3.04-.7,3.48-1.57.09-.22.13-.48.13-.73v-1.49Z"/>
  <path class="cls-1" d="M102.66,50.58l-.4-1.38h-.13c-1.41,1.09-3.62,1.68-6.17,1.68-4.36,0-6.97-2.02-6.97-4.21,0-3.56,5.03-5.28,12.65-5.25v-.2c0-.73-.62-1.77-3.92-1.77-2.2,0-4.54.48-5.95,1.04l-1.23-2.75c1.5-.53,4.45-1.21,8.38-1.21,7.19,0,9.48,2.69,9.48,5.92v4.77c0,1.32.09,2.58.31,3.34h-6.04ZM101.87,44.1c-3.53-.03-6.26.51-6.26,2.16,0,1.09,1.15,1.63,2.65,1.63,1.68,0,3.04-.7,3.48-1.57.09-.22.13-.48.13-.73v-1.49Z"/>
  <path class="cls-1" d="M44.5,46.2c1.9.59,4.83,1.18,7.84,1.18,3.25,0,4.97-.81,4.97-2.05s-1.49-1.85-5.25-2.67c-5.2-1.09-8.59-2.83-8.59-5.59,0-3.23,4.46-5.7,11.84-5.7,3.53,0,6.13.45,7.98.95l-1.58,3.45c-1.25-.36-3.48-.9-6.54-.9s-4.55.84-4.55,1.82c0,1.21,1.76,1.74,5.8,2.67,5.52,1.23,8.12,2.98,8.12,5.64,0,3.17-4.04,5.87-12.63,5.87-3.57,0-7.1-.56-8.87-1.15l1.44-3.54Z"/>
  <path class="cls-1" d="M112.86,46.2c1.9.59,4.83,1.18,7.84,1.18,3.25,0,4.97-.81,4.97-2.05s-1.49-1.85-5.25-2.67c-5.2-1.09-8.59-2.83-8.59-5.59,0-3.23,4.46-5.7,11.84-5.7,3.53,0,6.13.45,7.98.95l-1.58,3.45c-1.25-.36-3.48-.9-6.54-.9s-4.55.84-4.55,1.82c0,1.21,1.76,1.74,5.8,2.67,5.52,1.23,8.12,2.98,8.12,5.64,0,3.17-4.04,5.87-12.63,5.87-3.57,0-7.1-.56-8.87-1.15l1.44-3.54Z"/>
  <path class="cls-1" d="M112.86,23.16c1.9.59,4.83,1.18,7.84,1.18,3.25,0,4.97-.81,4.97-2.05s-1.49-1.85-5.25-2.67c-5.2-1.09-8.59-2.83-8.59-5.59,0-3.23,4.46-5.7,11.84-5.7,3.53,0,6.13.45,7.98.95l-1.58,3.45c-1.25-.36-3.48-.9-6.54-.9s-4.55.84-4.55,1.82c0,1.21,1.76,1.74,5.8,2.67,5.52,1.23,8.12,2.98,8.12,5.64,0,3.17-4.04,5.87-12.63,5.87-3.57,0-7.1-.56-8.87-1.15l1.44-3.54Z"/>
  <path class="cls-1" d="M38.81,26.47c-1.28.37-4.15.76-7.89.76-10.63,0-16.1-3.81-16.1-8.86,0-6.04,7.48-9.41,16.79-9.41,3.6,0,6.34.42,7.57.79l-1.41,3.18c-1.41-.34-3.38-.66-5.84-.66-5.52,0-9.81,1.92-9.81,5.86,0,3.55,3.65,5.78,9.85,5.78,2.1,0,4.42-.26,5.79-.58l1.05,3.13Z"/>
  <path class="cls-3" d="M27.64,42.72h-1.29c-2.16,0-3.24.59-3.24,1.77v1.77h15.53v4.24H14.81v-6c0-4,3.67-6,11-6h1.83c2.16,0,3.24-.59,3.24-1.77s-1.08-1.77-3.24-1.77h-10.24l-2.59-4.24h12.83c7.33,0,11,2,11,6s-3.67,6-11,6Z"/>
  <g>
    <rect class="cls-1" width="147.62" height="58.62"/>
    <rect class="cls-2" x="1.13" y="1.13" width="145.36" height="56.36"/>
    <path class="cls-1" d="M43.74,8.96h6.85v14.47h13.18v3.79h-20.03V8.96Z"/>
    <path class="cls-1" d="M80.3,26.94l-.4-1.29h-.13c-1.41,1.02-3.62,1.58-6.17,1.58-4.36,0-6.97-1.89-6.97-3.94,0-3.34,5.03-4.94,12.65-4.91v-.18c0-.68-.62-1.66-3.92-1.66-2.2,0-4.54.45-5.95.97l-1.23-2.58c1.5-.5,4.45-1.13,8.38-1.13,7.19,0,9.48,2.52,9.48,5.55v4.47c0,1.24.09,2.42.31,3.13h-6.04ZM79.51,20.87c-3.53-.03-6.26.47-6.26,2.02,0,1.02,1.15,1.52,2.65,1.52,1.68,0,3.04-.66,3.48-1.47.09-.21.13-.45.13-.68v-1.39Z"/>
    <path class="cls-1" d="M102.61,26.94l-.4-1.29h-.13c-1.41,1.02-3.62,1.58-6.17,1.58-4.36,0-6.97-1.89-6.97-3.94,0-3.34,5.03-4.94,12.65-4.91v-.18c0-.68-.62-1.66-3.92-1.66-2.2,0-4.54.45-5.95.97l-1.23-2.58c1.5-.5,4.45-1.13,8.38-1.13,7.19,0,9.48,2.52,9.48,5.55v4.47c0,1.24.09,2.42.31,3.13h-6.04ZM101.82,20.87c-3.53-.03-6.26.47-6.26,2.02,0,1.02,1.15,1.52,2.65,1.52,1.68,0,3.04-.66,3.48-1.47.09-.21.13-.45.13-.68v-1.39Z"/>
    <path class="cls-1" d="M80.3,50.58l-.4-1.38h-.13c-1.41,1.09-3.62,1.68-6.17,1.68-4.36,0-6.97-2.02-6.97-4.21,0-3.56,5.03-5.28,12.65-5.25v-.2c0-.73-.62-1.77-3.92-1.77-2.2,0-4.54.48-5.95,1.04l-1.23-2.75c1.5-.53,4.45-1.21,8.38-1.21,7.19,0,9.48,2.69,9.48,5.92v4.77c0,1.32.09,2.58.31,3.34h-6.04ZM79.51,44.1c-3.53-.03-6.26.51-6.26,2.16,0,1.09,1.15,1.63,2.65,1.63,1.68,0,3.04-.7,3.48-1.57.09-.22.13-.48.13-.73v-1.49Z"/>
    <path class="cls-1" d="M102.61,50.58l-.4-1.38h-.13c-1.41,1.09-3.62,1.68-6.17,1.68-4.36,0-6.97-2.02-6.97-4.21,0-3.56,5.03-5.28,12.65-5.25v-.2c0-.73-.62-1.77-3.92-1.77-2.2,0-4.54.48-5.95,1.04l-1.23-2.75c1.5-.53,4.45-1.21,8.38-1.21,7.19,0,9.48,2.69,9.48,5.92v4.77c0,1.32.09,2.58.31,3.34h-6.04ZM101.82,44.1c-3.53-.03-6.26.51-6.26,2.16,0,1.09,1.15,1.63,2.65,1.63,1.68,0,3.04-.7,3.48-1.57.09-.22.13-.48.13-.73v-1.49Z"/>
    <path class="cls-1" d="M44.45,46.2c1.9.59,4.83,1.18,7.84,1.18,3.25,0,4.97-.81,4.97-2.05s-1.49-1.85-5.25-2.67c-5.2-1.09-8.59-2.83-8.59-5.59,0-3.23,4.46-5.7,11.84-5.7,3.53,0,6.13.45,7.98.95l-1.58,3.45c-1.25-.36-3.48-.9-6.54-.9s-4.55.84-4.55,1.82c0,1.21,1.76,1.74,5.8,2.67,5.52,1.23,8.12,2.98,8.12,5.64,0,3.17-4.04,5.87-12.63,5.87-3.57,0-7.1-.56-8.87-1.15l1.44-3.54Z"/>
    <path class="cls-1" d="M112.8,46.2c1.9.59,4.83,1.18,7.84,1.18,3.25,0,4.97-.81,4.97-2.05s-1.49-1.85-5.25-2.67c-5.2-1.09-8.59-2.83-8.59-5.59,0-3.23,4.46-5.7,11.84-5.7,3.53,0,6.13.45,7.98.95l-1.58,3.45c-1.25-.36-3.48-.9-6.54-.9s-4.55.84-4.55,1.82c0,1.21,1.76,1.74,5.8,2.67,5.52,1.23,8.12,2.98,8.12,5.64,0,3.17-4.04,5.87-12.63,5.87-3.57,0-7.1-.56-8.87-1.15l1.44-3.54Z"/>
    <path class="cls-1" d="M112.8,23.16c1.9.59,4.83,1.18,7.84,1.18,3.25,0,4.97-.81,4.97-2.05s-1.49-1.85-5.25-2.67c-5.2-1.09-8.59-2.83-8.59-5.59,0-3.23,4.46-5.7,11.84-5.7,3.53,0,6.13.45,7.98.95l-1.58,3.45c-1.25-.36-3.48-.9-6.54-.9s-4.55.84-4.55,1.82c0,1.21,1.76,1.74,5.8,2.67,5.52,1.23,8.12,2.98,8.12,5.64,0,3.17-4.04,5.87-12.63,5.87-3.57,0-7.1-.56-8.87-1.15l1.44-3.54Z"/>
    <path class="cls-1" d="M38.76,26.47c-1.28.37-4.15.76-7.89.76-10.63,0-16.1-3.81-16.1-8.86,0-6.04,7.48-9.41,16.79-9.41,3.6,0,6.34.42,7.57.79l-1.41,3.18c-1.41-.34-3.38-.66-5.84-.66-5.52,0-9.81,1.92-9.81,5.86,0,3.55,3.65,5.78,9.85,5.78,2.1,0,4.42-.26,5.79-.58l1.05,3.13Z"/>
    <path class="cls-3" d="M27.59,42.72h-1.29c-2.16,0-3.24.59-3.24,1.77v1.77h15.53v4.24H14.76v-6c0-4,3.67-6,11-6h1.83c2.16,0,3.24-.59,3.24-1.77s-1.08-1.77-3.24-1.77h-10.24l-2.59-4.24h12.83c7.33,0,11,2,11,6s-3.67,6-11,6Z"/>
  </g>
</svg>